# xmcd
#
# Track frame offsets:
#  150
#  11185
#  19880
#  31216
#  39739
#  50621
#  59424
#  70817
#  82430
#  95679
#  106459
#  117118
#  128341
#  141117
#  151454
#  162465
#  175620
#  186811
#  197201
#  209454
#  219288
#  229275
#  240296
#  250892
#  261331
#  273255
#  282897
#  293701
#  304481
#  315312
#  328233
#  340500
#
# Disc length: 4695 seconds
#
# Revision: 0
# Processed by: cddbd v1.5.2PL0 Copyright (c) Steve Scherf et al.
# Submitted via: AltoMP3_Maker 3.0
#
DISCID=dd125520
DTITLE=Various Artist - Columbia Hillbilly, Vol. 4
DYEAR=1900
DGENRE=
TTITLE0=Johnny Hicks - Hamburger Hop
TTITLE1=Johnny Bond - All I Can Do Is Cry
TTITLE2=Jimmy Johnson - I've Lived a Lot in My Time
TTITLE3=Maddox Bros. and Rose - I've Got 4 Big Brothers
TTITLE4=Don Gibson - Ice Cold Heart
TTITLE5=The Tunesmiths - Baby I'm Ready
TTITLE6=Billy Walker - Whirlpool
TTITLE7=Charlie Adams - You've Wounded the Heart
TTITLE8=Oakie Jones - Warm Warm Kisses
TTITLE9=Stonewall Jackson - (You're Right) I Need You Real Bad
TTITLE10=Neal Burris - River of Love
TTITLE11=Bobby Lord - Ain't Cha Ever Gonna?
TTITLE12=Riley Crabtree - Maybe It's You or Maybe It's Me
TTITLE13=Smiley Maxedon - Until Then
TTITLE14=Andy Reynolds - Beer Bottle Mama
TTITLE15=Polly Possum and Joe Wolverton - Save the Pieces
TTITLE16=Little Jimmy Dickens - Me and My Big Loud Mouth
TTITLE17=George Morgan - A Shot in the Dark
TTITLE18=Johnny Hicks - Pick Up Blues
TTITLE19=Dusty Owens - Give Me a Little Chance
TTITLE20=Tommy Warren - I'm Gonna Fall out of Love with You
TTITLE21=Johnny Bond - Sale of Broken Hearts
TTITLE22=The Carter Sisters - He Went Slippin' around
TTITLE23=Johnny Ragsdale - Come Right in and Set a Spell
TTITLE24=Billy Walker - Mexican Joe
TTITLE25=Bill Morgan - The Mucher We Do It
TTITLE26=Bobby Lord - Hawkeye
TTITLE27=Oakie Jones - Love Fever
TTITLE28=Ray Price - i've Got to Hurry, Hurry, Hurry
TTITLE29=Paul Howard - I'm Drinking All My Troubles Away
TTITLE30=Neal Burris - Start the Music
TTITLE31=Billy Brown - Tight Wad
EXTD=
EXTT0=
EXTT1=
EXTT2=
EXTT3=
EXTT4=
EXTT5=
EXTT6=
EXTT7=
EXTT8=
EXTT9=
EXTT10=
EXTT11=
EXTT12=
EXTT13=
EXTT14=
EXTT15=
EXTT16=
EXTT17=
EXTT18=
EXTT19=
EXTT20=
EXTT21=
EXTT22=
EXTT23=
EXTT24=
EXTT25=
EXTT26=
EXTT27=
EXTT28=
EXTT29=
EXTT30=
EXTT31=
PLAYORDER=
